<svg xmlns="http://www.w3.org/2000/svg" xmlns:xlink="http://www.w3.org/1999/xlink" width="1280" height="720" viewBox="0 0 1280 720">
  <defs>
    <clipPath id="clip-path">
      <rect id="Rectángulo_2107" data-name="Rectángulo 2107" width="753" height="258" transform="translate(0.383 0.062)"/>
    </clipPath>
    <clipPath id="clip-Cliente-Platzi">
      <rect width="1280" height="720"/>
    </clipPath>
  </defs>
  <g id="Cliente-Platzi" clip-path="url(#clip-Cliente-Platzi)">
    <rect width="1280" height="720" fill="#13203d"/>
    <g id="Grupo_11689" data-name="Grupo 11689" transform="translate(-29.383 -10.062)">
      <g id="i-platzi" transform="translate(293 241)" clip-path="url(#clip-path)">
        <path id="Union_184" data-name="Union 184" d="M4604.974-5350.919v-41.338h-19.509v-17.38h19.509V-5433.2h21.25v23.369h33.021v17.387h-33.021v41.141c0,24.337,15.256,26.078,34.96,19.12l2.125,16.228a82.259,82.259,0,0,1-23.86,4.052c-20.477,0-34.479-11.346-34.479-39.015Zm-176.152,2.127v-104.495h21.443v104.495c0,15.838,4.25,20.861,20.668,18.154l.775,16.613a89.509,89.509,0,0,1-14.292,1.334c-19.5,0-28.62-9.8-28.62-36.1Zm48.094-14.485c.576-31.674,23.178-49.252,54.255-48.657a94.573,94.573,0,0,1,39.216,8.884v60.07h.193c0,8.689-.193,14.294,10.231,13.328v14.684c-13.711,2.506-27.812.966-27.812-14.879v-3.875a34.877,34.877,0,0,1-32.833,20.861c-29.154-.01-43.253-23.381-43.253-50.419Zm21.631-.193c0,17.385,8.5,31.1,26.269,31.1,16.031,0,24.337-12.555,24.915-30.141v-28.01a51.139,51.139,0,0,0-20.083-4.052c-18.175,0-30.526,10.433-31.094,31.1Zm269.248,49.063v-95.417h21.63v95.417Zm-94.835,0v-4.249l27.809-43.457,20.863-30.141h-45.583v-17.578h76.682v2.7l-29.548,45.77-19.509,28.418h48.866v18.543Zm-364.854,0v-138.874h57.558c30.9,0,49.059,22.6,49.059,49.06,0,26.078-18.342,48.288-49.059,48.288h-34.382v41.531Zm22.6-61.809h34.763c15.647,0,26.847-12.553,26.847-28.584s-10.621-28.389-26.847-28.389H4330.7Zm434.776-64.508a12.423,12.423,0,0,1,3.771-9.25,12.426,12.426,0,0,1,9.358-3.5,12.408,12.408,0,0,1,9.246,3.555,12.414,12.414,0,0,1,3.7,9.191,12.408,12.408,0,0,1-3.554,9.244,12.4,12.4,0,0,1-9.191,3.7,12.657,12.657,0,0,1-9.5-3.559,12.648,12.648,0,0,1-3.828-9.4Z" transform="translate(-4045.454 5514.57)" fill="#fff"/>
      </g>
      <path id="Union_184-2" data-name="Union 184" d="M4160.972-5273.759l-79.963-79.963a37.764,37.764,0,0,1,0-53.3l79.961-79.963a37.762,37.762,0,0,1,53.3,0l53.308,53.309a37.761,37.761,0,0,1,0,53.309l-53.31,53.308,26.659,26.65-26.659,26.654a37.559,37.559,0,0,1-26.646,11.015,37.566,37.566,0,0,1-26.661-11.015Zm-53.309-106.613,79.967,79.958,26.646-26.65-26.646-26.658,53.308-53.3-53.308-53.309Z" transform="translate(-3772.661 5751.806)" fill="#97cb3f"/>
    </g>
  </g>
</svg>
